<mxfile host="app.diagrams.net" agent="Mozilla/5.0 (Windows NT 10.0; Win64; x64) AppleWebKit/537.36 (KHTML, like Gecko) Chrome/134.0.0.0 Safari/537.36 Edg/134.0.0.0" version="26.1.0">
  <diagram name="PÃ¡gina-1" id="VlCzaE8y1rNMlKPAAs8a">
    <mxGraphModel dx="1426" dy="755" grid="1" gridSize="10" guides="1" tooltips="1" connect="1" arrows="1" fold="1" page="1" pageScale="1" pageWidth="827" pageHeight="1169" math="0" shadow="0">
      <root>
        <mxCell id="0" />
        <mxCell id="1" parent="0" />
        <mxCell id="UovPVWWfavHfSGJ7YpQn-1" value="" style="whiteSpace=wrap;html=1;aspect=fixed;" vertex="1" parent="1">
          <mxGeometry x="200" y="180" width="420" height="420" as="geometry" />
        </mxCell>
        <mxCell id="UovPVWWfavHfSGJ7YpQn-6" style="edgeStyle=orthogonalEdgeStyle;rounded=0;orthogonalLoop=1;jettySize=auto;html=1;entryX=0;entryY=0.5;entryDx=0;entryDy=0;fillColor=#008a00;strokeColor=#005700;strokeWidth=4;" edge="1" parent="1" source="UovPVWWfavHfSGJ7YpQn-2" target="UovPVWWfavHfSGJ7YpQn-5">
          <mxGeometry relative="1" as="geometry" />
        </mxCell>
        <mxCell id="UovPVWWfavHfSGJ7YpQn-8" style="edgeStyle=orthogonalEdgeStyle;rounded=0;orthogonalLoop=1;jettySize=auto;html=1;fillColor=#008a00;strokeColor=#005700;strokeWidth=4;curved=0;" edge="1" parent="1" source="UovPVWWfavHfSGJ7YpQn-2" target="UovPVWWfavHfSGJ7YpQn-4">
          <mxGeometry relative="1" as="geometry" />
        </mxCell>
        <mxCell id="UovPVWWfavHfSGJ7YpQn-2" value="Cliente" style="shape=umlActor;verticalLabelPosition=bottom;verticalAlign=top;html=1;outlineConnect=0;" vertex="1" parent="1">
          <mxGeometry x="70" y="280" width="30" height="60" as="geometry" />
        </mxCell>
        <mxCell id="UovPVWWfavHfSGJ7YpQn-46" style="edgeStyle=orthogonalEdgeStyle;rounded=1;orthogonalLoop=1;jettySize=auto;html=1;fillColor=#008a00;strokeColor=#005700;curved=0;strokeWidth=4;" edge="1" parent="1" source="UovPVWWfavHfSGJ7YpQn-4" target="UovPVWWfavHfSGJ7YpQn-11">
          <mxGeometry relative="1" as="geometry">
            <Array as="points">
              <mxPoint x="390" y="380" />
              <mxPoint x="390" y="380" />
            </Array>
          </mxGeometry>
        </mxCell>
        <mxCell id="UovPVWWfavHfSGJ7YpQn-4" value="Login" style="ellipse;whiteSpace=wrap;html=1;" vertex="1" parent="1">
          <mxGeometry x="340" y="280" width="100" height="60" as="geometry" />
        </mxCell>
        <mxCell id="UovPVWWfavHfSGJ7YpQn-10" value="" style="edgeStyle=orthogonalEdgeStyle;rounded=0;orthogonalLoop=1;jettySize=auto;html=1;fillColor=#008a00;strokeColor=#005700;strokeWidth=4;" edge="1" parent="1" source="UovPVWWfavHfSGJ7YpQn-5" target="UovPVWWfavHfSGJ7YpQn-4">
          <mxGeometry relative="1" as="geometry" />
        </mxCell>
        <mxCell id="UovPVWWfavHfSGJ7YpQn-5" value="Registre-se" style="ellipse;whiteSpace=wrap;html=1;" vertex="1" parent="1">
          <mxGeometry x="230" y="200" width="100" height="60" as="geometry" />
        </mxCell>
        <mxCell id="UovPVWWfavHfSGJ7YpQn-11" value="Abertura de chamado" style="ellipse;whiteSpace=wrap;html=1;" vertex="1" parent="1">
          <mxGeometry x="340" y="400" width="100" height="60" as="geometry" />
        </mxCell>
        <mxCell id="UovPVWWfavHfSGJ7YpQn-42" style="edgeStyle=orthogonalEdgeStyle;rounded=0;orthogonalLoop=1;jettySize=auto;html=1;entryX=1;entryY=0.5;entryDx=0;entryDy=0;fillColor=#e51400;strokeColor=#B20000;strokeWidth=4;" edge="1" parent="1" source="UovPVWWfavHfSGJ7YpQn-29" target="UovPVWWfavHfSGJ7YpQn-4">
          <mxGeometry relative="1" as="geometry" />
        </mxCell>
        <mxCell id="UovPVWWfavHfSGJ7YpQn-47" style="edgeStyle=orthogonalEdgeStyle;rounded=0;orthogonalLoop=1;jettySize=auto;html=1;fillColor=#e51400;strokeColor=#B20000;strokeWidth=4;" edge="1" parent="1" source="UovPVWWfavHfSGJ7YpQn-29" target="UovPVWWfavHfSGJ7YpQn-30">
          <mxGeometry relative="1" as="geometry" />
        </mxCell>
        <mxCell id="UovPVWWfavHfSGJ7YpQn-29" value="Administrador" style="shape=umlActor;verticalLabelPosition=bottom;verticalAlign=top;html=1;" vertex="1" parent="1">
          <mxGeometry x="680" y="280" width="30" height="60" as="geometry" />
        </mxCell>
        <mxCell id="UovPVWWfavHfSGJ7YpQn-30" value="Resolver chamado" style="ellipse;whiteSpace=wrap;html=1;" vertex="1" parent="1">
          <mxGeometry x="480" y="230" width="100" height="60" as="geometry" />
        </mxCell>
        <mxCell id="UovPVWWfavHfSGJ7YpQn-38" value="Regras Clientes" style="swimlane;fontStyle=0;childLayout=stackLayout;horizontal=1;startSize=30;horizontalStack=0;resizeParent=1;resizeParentMax=0;resizeLast=0;collapsible=1;marginBottom=0;whiteSpace=wrap;html=1;fillColor=#008a00;strokeColor=#005700;fillStyle=solid;fontColor=#ffffff;" vertex="1" parent="1">
          <mxGeometry x="20" y="20" width="180" height="90" as="geometry" />
        </mxCell>
        <mxCell id="UovPVWWfavHfSGJ7YpQn-39" value="Abre chamado apenas logado" style="text;strokeColor=#82b366;fillColor=#d5e8d4;align=left;verticalAlign=middle;spacingLeft=4;spacingRight=4;overflow=hidden;points=[[0,0.5],[1,0.5]];portConstraint=eastwest;rotatable=0;whiteSpace=wrap;html=1;" vertex="1" parent="UovPVWWfavHfSGJ7YpQn-38">
          <mxGeometry y="30" width="180" height="30" as="geometry" />
        </mxCell>
        <mxCell id="UovPVWWfavHfSGJ7YpQn-41" value="Deve detalhar chamado" style="text;strokeColor=#82b366;fillColor=#d5e8d4;align=left;verticalAlign=middle;spacingLeft=4;spacingRight=4;overflow=hidden;points=[[0,0.5],[1,0.5]];portConstraint=eastwest;rotatable=0;whiteSpace=wrap;html=1;" vertex="1" parent="UovPVWWfavHfSGJ7YpQn-38">
          <mxGeometry y="60" width="180" height="30" as="geometry" />
        </mxCell>
        <mxCell id="UovPVWWfavHfSGJ7YpQn-52" value="" style="shape=doubleArrow;direction=south;whiteSpace=wrap;html=1;fillColor=#e51400;fontColor=#ffffff;strokeColor=#B20000;" vertex="1" parent="1">
          <mxGeometry x="70" y="120" width="25" height="150" as="geometry" />
        </mxCell>
        <mxCell id="UovPVWWfavHfSGJ7YpQn-55" value="Regras Administrador" style="swimlane;fontStyle=0;childLayout=stackLayout;horizontal=1;startSize=30;horizontalStack=0;resizeParent=1;resizeParentMax=0;resizeLast=0;collapsible=1;marginBottom=0;whiteSpace=wrap;html=1;fillColor=#008a00;strokeColor=#005700;fillStyle=solid;fontColor=#ffffff;" vertex="1" parent="1">
          <mxGeometry x="590" y="20" width="210" height="90" as="geometry" />
        </mxCell>
        <mxCell id="UovPVWWfavHfSGJ7YpQn-56" value="Responde chamado apenas logado" style="text;strokeColor=#82b366;fillColor=#d5e8d4;align=left;verticalAlign=middle;spacingLeft=4;spacingRight=4;overflow=hidden;points=[[0,0.5],[1,0.5]];portConstraint=eastwest;rotatable=0;whiteSpace=wrap;html=1;" vertex="1" parent="UovPVWWfavHfSGJ7YpQn-55">
          <mxGeometry y="30" width="210" height="30" as="geometry" />
        </mxCell>
        <mxCell id="UovPVWWfavHfSGJ7YpQn-57" value="Responder chamados" style="text;strokeColor=#82b366;fillColor=#d5e8d4;align=left;verticalAlign=middle;spacingLeft=4;spacingRight=4;overflow=hidden;points=[[0,0.5],[1,0.5]];portConstraint=eastwest;rotatable=0;whiteSpace=wrap;html=1;" vertex="1" parent="UovPVWWfavHfSGJ7YpQn-55">
          <mxGeometry y="60" width="210" height="30" as="geometry" />
        </mxCell>
        <mxCell id="UovPVWWfavHfSGJ7YpQn-58" value="" style="shape=doubleArrow;direction=south;whiteSpace=wrap;html=1;fillColor=#e51400;fontColor=#ffffff;strokeColor=#B20000;" vertex="1" parent="1">
          <mxGeometry x="680" y="120" width="25" height="150" as="geometry" />
        </mxCell>
      </root>
    </mxGraphModel>
  </diagram>
</mxfile>
